<svg xmlns="http://www.w3.org/2000/svg" xmlns:xlink="http://www.w3.org/1999/xlink" contentStyleType="text/css" data-diagram-type="CLASS" height="885px" preserveAspectRatio="none" style="width:637px;height:885px;background:#FFFFFF;" version="1.1" viewBox="0 0 637 885" width="637px" zoomAndPan="magnify"><defs/><g><!--class AST--><g class="entity" data-entity="AST" data-source-line="3" data-uid="ent0002" id="entity_AST"><rect fill="#F1F1F1" height="113.1875" rx="2.5" ry="2.5" style="stroke:#181818;stroke-width:0.5;" width="532.3516" x="7" y="7"/><ellipse cx="255.418" cy="23" fill="#ADD1B2" rx="11" ry="11" style="stroke:#181818;stroke-width:1;"/><path d="M258.3867,28.6406 Q257.8086,28.9375 257.168,29.0781 Q256.5273,29.2344 255.8242,29.2344 Q253.3242,29.2344 251.9961,27.5938 Q250.6836,25.9375 250.6836,22.8125 Q250.6836,19.6875 251.9961,18.0313 Q253.3242,16.375 255.8242,16.375 Q256.5273,16.375 257.168,16.5313 Q257.8242,16.6875 258.3867,16.9844 L258.3867,19.7031 Q257.7617,19.125 257.168,18.8594 Q256.5742,18.5781 255.9492,18.5781 Q254.6055,18.5781 253.918,19.6563 Q253.2305,20.7188 253.2305,22.8125 Q253.2305,24.9063 253.918,25.9844 Q254.6055,27.0469 255.9492,27.0469 Q256.5742,27.0469 257.168,26.7813 Q257.7617,26.5 258.3867,25.9219 L258.3867,28.6406 Z " fill="#000000"/><text fill="#000000" font-family="sans-serif" font-size="14" lengthAdjust="spacing" textLength="27.0156" x="275.918" y="27.8467">AST</text><line style="stroke:#181818;stroke-width:0.5;" x1="8" x2="538.3516" y1="39" y2="39"/><rect fill="none" height="6" style="stroke:#C82930;stroke-width:1;" width="6" x="15" y="49.6484"/><text fill="#000000" font-family="sans-serif" font-size="14" lengthAdjust="spacing" textLength="242.252" x="27" y="55.9951">root_ : std::unique_ptr&lt;ASTNode&gt;</text><line style="stroke:#181818;stroke-width:0.5;" x1="8" x2="538.3516" y1="63.2969" y2="63.2969"/><ellipse cx="18" cy="76.9453" fill="#84BE84" rx="3" ry="3" style="stroke:#038048;stroke-width:1;"/><text fill="#000000" font-family="sans-serif" font-size="14" lengthAdjust="spacing" textLength="237.3574" x="27" y="80.292">AST(const std::vector&lt;Token&gt; &amp;)</text><rect fill="#F24D5C" height="6" style="stroke:#C82930;stroke-width:1;" width="6" x="15" y="90.2422"/><text fill="#000000" font-family="sans-serif" font-size="14" lengthAdjust="spacing" textLength="506.3516" x="27" y="96.5889">parseTokens(const std::vector&lt;Token&gt; &amp;) : std::unique_ptr&lt;ASTNode&gt;</text><ellipse cx="18" cy="109.5391" fill="#84BE84" rx="3" ry="3" style="stroke:#038048;stroke-width:1;"/><text fill="#000000" font-family="sans-serif" font-size="14" lengthAdjust="spacing" textLength="267.9756" x="27" y="112.8857">execute(ShellContext&amp; context) : void</text></g><!--class ASTNode--><g class="entity" data-entity="ASTNode" data-source-line="11" data-uid="ent0003" id="entity_ASTNode"><rect fill="#F1F1F1" height="113.1875" rx="2.5" ry="2.5" style="stroke:#181818;stroke-width:0.5;" width="282.6006" x="131.88" y="180.19"/><ellipse cx="237.1534" cy="196.19" fill="#A9DCDF" rx="11" ry="11" style="stroke:#181818;stroke-width:1;"/><path d="M237.2628,191.5337 L236.1066,196.6119 L238.4347,196.6119 L237.2628,191.5337 Z M235.7784,189.2994 L238.7628,189.2994 L242.1222,201.69 L239.6691,201.69 L238.9034,198.6275 L235.6222,198.6275 L234.8722,201.69 L232.4347,201.69 L235.7784,189.2994 Z " fill="#000000"/><text fill="#000000" font-family="sans-serif" font-size="14" font-style="italic" lengthAdjust="spacing" textLength="63.5537" x="257.6534" y="201.0367">ASTNode</text><line style="stroke:#181818;stroke-width:0.5;" x1="132.88" x2="413.4806" y1="212.19" y2="212.19"/><line style="stroke:#181818;stroke-width:0.5;" x1="132.88" x2="413.4806" y1="220.19" y2="220.19"/><ellipse cx="142.88" cy="233.8384" fill="#84BE84" rx="3" ry="3" style="stroke:#038048;stroke-width:1;"/><text fill="#000000" font-family="sans-serif" font-size="14" lengthAdjust="spacing" textLength="86.208" x="151.88" y="237.1851">~ASTNode()</text><ellipse cx="142.88" cy="250.1353" fill="#84BE84" rx="3" ry="3" style="stroke:#038048;stroke-width:1;"/><text fill="#000000" font-family="sans-serif" font-size="14" font-style="italic" lengthAdjust="spacing" textLength="158.915" x="151.88" y="253.482">getType() : TokenType</text><ellipse cx="142.88" cy="266.4322" fill="#84BE84" rx="3" ry="3" style="stroke:#038048;stroke-width:1;"/><text fill="#000000" font-family="sans-serif" font-size="14" font-style="italic" lengthAdjust="spacing" textLength="256.6006" x="151.88" y="269.7789">execute(ShellContext&amp; context) : int</text><ellipse cx="142.88" cy="282.7291" fill="#84BE84" rx="3" ry="3" style="stroke:#038048;stroke-width:1;"/><text fill="#000000" font-family="sans-serif" font-size="14" font-style="italic" lengthAdjust="spacing" textLength="151.6689" x="151.88" y="286.0757">toString() : std::string</text></g><!--class ArgumentNode--><g class="entity" data-entity="ArgumentNode" data-source-line="19" data-uid="ent0004" id="entity_ArgumentNode"><rect fill="#F1F1F1" height="96.8906" rx="2.5" ry="2.5" style="stroke:#181818;stroke-width:0.5;" width="340.3779" x="102.99" y="575.46"/><ellipse cx="215.8069" cy="591.46" fill="#A9DCDF" rx="11" ry="11" style="stroke:#181818;stroke-width:1;"/><path d="M215.9163,586.8037 L214.76,591.8819 L217.0881,591.8819 L215.9163,586.8037 Z M214.4319,584.5694 L217.4163,584.5694 L220.7756,596.96 L218.3225,596.96 L217.5569,593.8975 L214.2756,593.8975 L213.5256,596.96 L211.0881,596.96 L214.4319,584.5694 Z " fill="#000000"/><text fill="#000000" font-family="sans-serif" font-size="14" font-style="italic" lengthAdjust="spacing" textLength="106.2441" x="236.3069" y="596.3067">ArgumentNode</text><line style="stroke:#181818;stroke-width:0.5;" x1="103.99" x2="442.3679" y1="607.46" y2="607.46"/><line style="stroke:#181818;stroke-width:0.5;" x1="103.99" x2="442.3679" y1="615.46" y2="615.46"/><ellipse cx="113.99" cy="629.1084" fill="#84BE84" rx="3" ry="3" style="stroke:#038048;stroke-width:1;"/><text fill="#000000" font-family="sans-serif" font-size="14" font-style="italic" lengthAdjust="spacing" textLength="158.915" x="122.99" y="632.4551">getType() : TokenType</text><ellipse cx="113.99" cy="645.4053" fill="#84BE84" rx="3" ry="3" style="stroke:#038048;stroke-width:1;"/><text fill="#000000" font-family="sans-serif" font-size="14" font-style="italic" lengthAdjust="spacing" textLength="314.3779" x="122.99" y="648.752">evaluate(ShellContext&amp; context) : std::string</text><ellipse cx="113.99" cy="661.7022" fill="#84BE84" rx="3" ry="3" style="stroke:#038048;stroke-width:1;"/><text fill="#000000" font-family="sans-serif" font-size="14" font-style="italic" lengthAdjust="spacing" textLength="151.6689" x="122.99" y="665.0489">toString() : std::string</text></g><!--class CommandNode--><g class="entity" data-entity="CommandNode" data-source-line="26" data-uid="ent0005" id="entity_CommandNode"><rect fill="#F1F1F1" height="162.0781" rx="2.5" ry="2.5" style="stroke:#181818;stroke-width:0.5;" width="439.8477" x="190.25" y="353.38"/><ellipse cx="351.6772" cy="369.38" fill="#ADD1B2" rx="11" ry="11" style="stroke:#181818;stroke-width:1;"/><path d="M354.646,375.0206 Q354.0679,375.3175 353.4272,375.4581 Q352.7866,375.6144 352.0835,375.6144 Q349.5835,375.6144 348.2554,373.9738 Q346.9429,372.3175 346.9429,369.1925 Q346.9429,366.0675 348.2554,364.4113 Q349.5835,362.755 352.0835,362.755 Q352.7866,362.755 353.4272,362.9113 Q354.0835,363.0675 354.646,363.3644 L354.646,366.0831 Q354.021,365.505 353.4272,365.2394 Q352.8335,364.9581 352.2085,364.9581 Q350.8647,364.9581 350.1772,366.0363 Q349.4897,367.0988 349.4897,369.1925 Q349.4897,371.2863 350.1772,372.3644 Q350.8647,373.4269 352.2085,373.4269 Q352.8335,373.4269 353.4272,373.1613 Q354.021,372.88 354.646,372.3019 L354.646,375.0206 Z " fill="#000000"/><text fill="#000000" font-family="sans-serif" font-size="14" lengthAdjust="spacing" textLength="108.4932" x="372.1772" y="374.2267">CommandNode</text><line style="stroke:#181818;stroke-width:0.5;" x1="191.25" x2="629.0977" y1="385.38" y2="385.38"/><rect fill="none" height="6" style="stroke:#C82930;stroke-width:1;" width="6" x="198.25" y="396.0284"/><text fill="#000000" font-family="sans-serif" font-size="14" lengthAdjust="spacing" textLength="115.1309" x="210.25" y="402.3751">cmd : std::string</text><rect fill="none" height="6" style="stroke:#C82930;stroke-width:1;" width="6" x="198.25" y="412.3253"/><text fill="#000000" font-family="sans-serif" font-size="14" lengthAdjust="spacing" textLength="379.0527" x="210.25" y="418.672">args : std::vector&lt;std::unique_ptr&lt;ArgumentNode&gt;&gt;</text><line style="stroke:#181818;stroke-width:0.5;" x1="191.25" x2="629.0977" y1="425.9738" y2="425.9738"/><ellipse cx="201.25" cy="439.6222" fill="#84BE84" rx="3" ry="3" style="stroke:#038048;stroke-width:1;"/><text fill="#000000" font-family="sans-serif" font-size="14" lengthAdjust="spacing" textLength="268.7617" x="210.25" y="442.9689">CommandNode(std::string CmdName)</text><ellipse cx="201.25" cy="455.9191" fill="#84BE84" rx="3" ry="3" style="stroke:#038048;stroke-width:1;"/><text fill="#000000" font-family="sans-serif" font-size="14" lengthAdjust="spacing" textLength="158.915" x="210.25" y="459.2657">getType() : TokenType</text><ellipse cx="201.25" cy="472.2159" fill="#84BE84" rx="3" ry="3" style="stroke:#038048;stroke-width:1;"/><text fill="#000000" font-family="sans-serif" font-size="14" lengthAdjust="spacing" textLength="256.6006" x="210.25" y="475.5626">execute(ShellContext&amp; context) : int</text><ellipse cx="201.25" cy="488.5128" fill="#84BE84" rx="3" ry="3" style="stroke:#038048;stroke-width:1;"/><text fill="#000000" font-family="sans-serif" font-size="14" lengthAdjust="spacing" textLength="151.6689" x="210.25" y="491.8595">toString() : std::string</text><ellipse cx="201.25" cy="504.8097" fill="#84BE84" rx="3" ry="3" style="stroke:#038048;stroke-width:1;"/><text fill="#000000" font-family="sans-serif" font-size="14" lengthAdjust="spacing" textLength="413.8477" x="210.25" y="508.1564">addArgument(std::unique_ptr&lt;ArgumentNode&gt; arg) : void</text></g><!--class LiteralNode--><g class="entity" data-entity="LiteralNode" data-source-line="39" data-uid="ent0006" id="entity_LiteralNode"><rect fill="#F1F1F1" height="145.7813" rx="2.5" ry="2.5" style="stroke:#181818;stroke-width:0.5;" width="340.3779" x="102.99" y="732.35"/><ellipse cx="228.6516" cy="748.35" fill="#ADD1B2" rx="11" ry="11" style="stroke:#181818;stroke-width:1;"/><path d="M231.6204,753.9906 Q231.0422,754.2875 230.4016,754.4281 Q229.761,754.5844 229.0579,754.5844 Q226.5579,754.5844 225.2297,752.9438 Q223.9172,751.2875 223.9172,748.1625 Q223.9172,745.0375 225.2297,743.3813 Q226.5579,741.725 229.0579,741.725 Q229.761,741.725 230.4016,741.8813 Q231.0579,742.0375 231.6204,742.3344 L231.6204,745.0531 Q230.9954,744.475 230.4016,744.2094 Q229.8079,743.9281 229.1829,743.9281 Q227.8391,743.9281 227.1516,745.0063 Q226.4641,746.0688 226.4641,748.1625 Q226.4641,750.2563 227.1516,751.3344 Q227.8391,752.3969 229.1829,752.3969 Q229.8079,752.3969 230.4016,752.1313 Q230.9954,751.85 231.6204,751.2719 L231.6204,753.9906 Z " fill="#000000"/><text fill="#000000" font-family="sans-serif" font-size="14" lengthAdjust="spacing" textLength="80.5547" x="249.1516" y="753.1967">LiteralNode</text><line style="stroke:#181818;stroke-width:0.5;" x1="103.99" x2="442.3679" y1="764.35" y2="764.35"/><rect fill="none" height="6" style="stroke:#C82930;stroke-width:1;" width="6" x="110.99" y="774.9984"/><text fill="#000000" font-family="sans-serif" font-size="14" lengthAdjust="spacing" textLength="130.1494" x="122.99" y="781.3451">value_ : std::string</text><line style="stroke:#181818;stroke-width:0.5;" x1="103.99" x2="442.3679" y1="788.6469" y2="788.6469"/><ellipse cx="113.99" cy="802.2953" fill="#84BE84" rx="3" ry="3" style="stroke:#038048;stroke-width:1;"/><text fill="#000000" font-family="sans-serif" font-size="14" lengthAdjust="spacing" textLength="205.4609" x="122.99" y="805.642">LiteralNode(std::string value)</text><ellipse cx="113.99" cy="818.5922" fill="#84BE84" rx="3" ry="3" style="stroke:#038048;stroke-width:1;"/><text fill="#000000" font-family="sans-serif" font-size="14" lengthAdjust="spacing" textLength="158.915" x="122.99" y="821.9389">getType() : TokenType</text><ellipse cx="113.99" cy="834.8891" fill="#84BE84" rx="3" ry="3" style="stroke:#038048;stroke-width:1;"/><text fill="#000000" font-family="sans-serif" font-size="14" lengthAdjust="spacing" textLength="256.6006" x="122.99" y="838.2357">execute(ShellContext&amp; context) : int</text><ellipse cx="113.99" cy="851.1859" fill="#84BE84" rx="3" ry="3" style="stroke:#038048;stroke-width:1;"/><text fill="#000000" font-family="sans-serif" font-size="14" lengthAdjust="spacing" textLength="314.3779" x="122.99" y="854.5326">evaluate(ShellContext&amp; context) : std::string</text><ellipse cx="113.99" cy="867.4828" fill="#84BE84" rx="3" ry="3" style="stroke:#038048;stroke-width:1;"/><text fill="#000000" font-family="sans-serif" font-size="14" lengthAdjust="spacing" textLength="151.6689" x="122.99" y="870.8295">toString() : std::string</text></g><!--reverse link ASTNode to ArgumentNode--><g class="link" data-entity-1="ASTNode" data-entity-2="ArgumentNode" data-source-line="56" data-uid="lnk7" id="link_ASTNode_ArgumentNode"><path codeLine="56" d="M198.9142,307.364 C183.6742,324.774 181.28,331.62 173.18,353.38 C148.03,420.88 146.81,448.42 173.18,515.46 C181.94,537.75 197.76,558.16 214.26,575.06" fill="none" id="ASTNode-backto-ArgumentNode" style="stroke:#181818;stroke-width:1;"/><polygon fill="none" points="210.77,293.82,194.3995,303.412,203.4288,311.3159,210.77,293.82" style="stroke:#181818;stroke-width:1;"/></g><!--reverse link ASTNode to CommandNode--><g class="link" data-entity-1="ASTNode" data-entity-2="CommandNode" data-source-line="59" data-uid="lnk8" id="link_ASTNode_CommandNode"><path codeLine="59" d="M322.7577,308.5924 C335.6477,326.9924 339.91,333.08 353.81,352.93" fill="none" id="ASTNode-backto-CommandNode" style="stroke:#181818;stroke-width:1;"/><polygon fill="none" points="312.43,293.85,317.8436,312.035,327.6718,305.1498,312.43,293.85" style="stroke:#181818;stroke-width:1;"/></g><!--reverse link ArgumentNode to LiteralNode--><g class="link" data-entity-1="ArgumentNode" data-entity-2="LiteralNode" data-source-line="62" data-uid="lnk9" id="link_ArgumentNode_LiteralNode"><path codeLine="62" d="M273.18,690.49 C273.18,708.75 273.18,712.03 273.18,732.09" fill="none" id="ArgumentNode-backto-LiteralNode" style="stroke:#181818;stroke-width:1;"/><polygon fill="none" points="273.18,672.49,267.18,690.49,279.18,690.49,273.18,672.49" style="stroke:#181818;stroke-width:1;"/></g><!--reverse link AST to ASTNode--><g class="link" data-entity-1="AST" data-entity-2="ASTNode" data-source-line="71" data-uid="lnk10" id="link_AST_ASTNode"><path codeLine="71" d="M273.18,132.65 C273.18,151.67 273.18,160.9 273.18,179.9" fill="none" id="AST-backto-ASTNode" style="stroke:#181818;stroke-width:1;"/><polygon fill="none" points="273.18,120.65,269.18,126.65,273.18,132.65,277.18,126.65,273.18,120.65" style="stroke:#181818;stroke-width:1;"/></g><!--reverse link CommandNode to ArgumentNode--><g class="link" data-entity-1="CommandNode" data-entity-2="ArgumentNode" data-source-line="74" data-uid="lnk11" id="link_CommandNode_ArgumentNode"><path codeLine="74" d="M344.3997,525.4386 C329.6597,545.6086 321.37,556.94 308.2,574.97" fill="none" id="CommandNode-backto-ArgumentNode" style="stroke:#181818;stroke-width:1;"/><polygon fill="none" points="351.48,515.75,344.7103,518.2342,344.3997,525.4386,351.1694,522.9544,351.48,515.75" style="stroke:#181818;stroke-width:1;"/></g><!--SRC=[hLJBRi8m43pZh_09Kg68Eq98Y5EbYXxWZeoz2cuJExKtY8hIRw_ZaDJXaOBKN99ThtTcn-EC1lHrymOSBHsC2E4fivREbYjw8BsXUqTSAulKeXYFTwvCcybAluEQqluJwSKvCnPymdPLqd6LBvJyA62TevcutWijOEgQ6ArntLaoX3tm0Y5QRY5DvreXxB5FUVLHjjzfASYH4C8s5WtZI9jHoXv-dEzJ43dcmqDTUAG9uEepTsdNnrCketR9d_XIONi7wYKQgPAe6Txw-2f9anGPA6oOFaXknzA2TR4ByUzdMP6RwonZIZJSWZWATj1v9XOiWrBRMvplKp7ccRZWV9DeBsOciNNoPBmB9mK2Jqi_CI7gNDHPJ5ttbhzgMLuaWc5f8qiGjsGfp-OVH1a-UiWTWdbAwoi7xf_HW3whBHY9J76W1bA6qbtjhSohVqHzfIPVSTooBZbR2vnIBeKcz-k1PB_OioGna7Z8wzXKbx0LZjiIsbEV4Ve1]--></g></svg>