<svg xmlns="http://www.w3.org/2000/svg" xmlns:xlink="http://www.w3.org/1999/xlink" contentStyleType="text/css" data-diagram-type="CLASS" height="760px" preserveAspectRatio="none" style="width:2693px;height:760px;background:#FFFFFF;" version="1.1" viewBox="0 0 2693 760" width="2693px" zoomAndPan="magnify"><defs/><g><!--class ICommand--><g class="entity" data-entity="ICommand" data-source-line="4" data-uid="ent0002" id="entity_ICommand"><rect fill="#F1F1F1" height="96.8906" rx="2.5" ry="2.5" style="stroke:#181818;stroke-width:0.5;" width="507.6465" x="1093" y="516.35"/><ellipse cx="1304.5313" cy="532.35" fill="#A9DCDF" rx="11" ry="11" style="stroke:#181818;stroke-width:1;"/><path d="M1304.6406,527.6938 L1303.4844,532.7719 L1305.8125,532.7719 L1304.6406,527.6938 Z M1303.1563,525.4594 L1306.1406,525.4594 L1309.5,537.85 L1307.0469,537.85 L1306.2813,534.7875 L1303,534.7875 L1302.25,537.85 L1299.8125,537.85 L1303.1563,525.4594 Z " fill="#000000"/><text fill="#000000" font-family="sans-serif" font-size="14" font-style="italic" lengthAdjust="spacing" textLength="76.084" x="1325.0313" y="537.1967">ICommand</text><line style="stroke:#181818;stroke-width:0.5;" x1="1094" x2="1599.6465" y1="548.35" y2="548.35"/><line style="stroke:#181818;stroke-width:0.5;" x1="1094" x2="1599.6465" y1="556.35" y2="556.35"/><ellipse cx="1104" cy="569.9984" fill="#84BE84" rx="3" ry="3" style="stroke:#038048;stroke-width:1;"/><text fill="#000000" font-family="sans-serif" font-size="14" lengthAdjust="spacing" textLength="98.7383" x="1113" y="573.3451">~ICommand()</text><ellipse cx="1104" cy="586.2953" fill="#84BE84" rx="3" ry="3" style="stroke:#038048;stroke-width:1;"/><text fill="#000000" font-family="sans-serif" font-size="14" font-style="italic" lengthAdjust="spacing" textLength="481.6465" x="1113" y="589.642">execute(ShellContext&amp; context, std::vector&lt;std::string&gt;&amp; args) : int</text><ellipse cx="1104" cy="602.5922" fill="#84BE84" rx="3" ry="3" style="stroke:#038048;stroke-width:1;"/><text fill="#000000" font-family="sans-serif" font-size="14" font-style="italic" lengthAdjust="spacing" textLength="198.2148" x="1113" y="605.9389">name() : std::string {query}</text></g><!--class Shell--><g class="entity" data-entity="Shell" data-source-line="12" data-uid="ent0003" id="entity_Shell"><rect fill="#F1F1F1" height="194.6719" rx="2.5" ry="2.5" style="stroke:#181818;stroke-width:0.5;" width="508.501" x="1092.57" y="7"/><ellipse cx="1325.4943" cy="23" fill="#ADD1B2" rx="11" ry="11" style="stroke:#181818;stroke-width:1;"/><path d="M1328.4631,28.6406 Q1327.8849,28.9375 1327.2443,29.0781 Q1326.6037,29.2344 1325.9006,29.2344 Q1323.4006,29.2344 1322.0724,27.5938 Q1320.7599,25.9375 1320.7599,22.8125 Q1320.7599,19.6875 1322.0724,18.0313 Q1323.4006,16.375 1325.9006,16.375 Q1326.6037,16.375 1327.2443,16.5313 Q1327.9006,16.6875 1328.4631,16.9844 L1328.4631,19.7031 Q1327.8381,19.125 1327.2443,18.8594 Q1326.6506,18.5781 1326.0256,18.5781 Q1324.6818,18.5781 1323.9943,19.6563 Q1323.3068,20.7188 1323.3068,22.8125 Q1323.3068,24.9063 1323.9943,25.9844 Q1324.6818,27.0469 1326.0256,27.0469 Q1326.6506,27.0469 1327.2443,26.7813 Q1327.8381,26.5 1328.4631,25.9219 L1328.4631,28.6406 Z " fill="#000000"/><text fill="#000000" font-family="sans-serif" font-size="14" lengthAdjust="spacing" textLength="34.1523" x="1345.9943" y="27.8467">Shell</text><line style="stroke:#181818;stroke-width:0.5;" x1="1093.57" x2="1600.071" y1="39" y2="39"/><rect fill="none" height="6" style="stroke:#C82930;stroke-width:1;" width="6" x="1100.57" y="49.6484"/><text fill="#000000" font-family="sans-serif" font-size="14" lengthAdjust="spacing" textLength="155.873" x="1112.57" y="55.9951">context : ShellContext</text><rect fill="none" height="6" style="stroke:#C82930;stroke-width:1;" width="6" x="1100.57" y="65.9453"/><text fill="#000000" font-family="sans-serif" font-size="14" lengthAdjust="spacing" text-decoration="underline" textLength="156.9668" x="1112.57" y="72.292">instance : static Shell*</text><line style="stroke:#181818;stroke-width:0.5;" x1="1093.57" x2="1600.071" y1="79.5938" y2="79.5938"/><ellipse cx="1103.57" cy="93.2422" fill="#84BE84" rx="3" ry="3" style="stroke:#038048;stroke-width:1;"/><text fill="#000000" font-family="sans-serif" font-size="14" lengthAdjust="spacing" textLength="45.0762" x="1112.57" y="96.5889">Shell()</text><ellipse cx="1103.57" cy="109.5391" fill="#84BE84" rx="3" ry="3" style="stroke:#038048;stroke-width:1;"/><text fill="#000000" font-family="sans-serif" font-size="14" lengthAdjust="spacing" textLength="56.8066" x="1112.57" y="112.8857">~Shell()</text><rect fill="#F24D5C" height="6" style="stroke:#C82930;stroke-width:1;" width="6" x="1100.57" y="122.8359"/><text fill="#000000" font-family="sans-serif" font-size="14" lengthAdjust="spacing" text-decoration="underline" textLength="402.2676" x="1112.57" y="129.1826">autocomplete(const char* input, int start, int end) : char*</text><rect fill="#F24D5C" height="6" style="stroke:#C82930;stroke-width:1;" width="6" x="1100.57" y="139.1328"/><text fill="#000000" font-family="sans-serif" font-size="14" lengthAdjust="spacing" textLength="417.5732" x="1112.57" y="145.4795">autocomplete_generate(const char* input, int state) : char*</text><rect fill="#F24D5C" height="6" style="stroke:#C82930;stroke-width:1;" width="6" x="1100.57" y="155.4297"/><text fill="#000000" font-family="sans-serif" font-size="14" lengthAdjust="spacing" text-decoration="underline" textLength="482.501" x="1112.57" y="161.7764">autocomplete_generate_wrapper(const char* input, int state) : char*</text><ellipse cx="1103.57" cy="174.7266" fill="#84BE84" rx="3" ry="3" style="stroke:#038048;stroke-width:1;"/><text fill="#000000" font-family="sans-serif" font-size="14" lengthAdjust="spacing" textLength="66.2949" x="1112.57" y="178.0732">run() : int</text><rect fill="#F24D5C" height="6" style="stroke:#C82930;stroke-width:1;" width="6" x="1100.57" y="188.0234"/><text fill="#000000" font-family="sans-serif" font-size="14" lengthAdjust="spacing" text-decoration="underline" textLength="381.0283" x="1112.57" y="194.3701">buildPrompt(const ShellContext&amp; context) : std::string</text></g><!--class cdCmd--><g class="entity" data-entity="cdCmd" data-source-line="25" data-uid="ent0004" id="entity_cdCmd"><rect fill="#F1F1F1" height="80.5938" rx="2.5" ry="2.5" style="stroke:#181818;stroke-width:0.5;" width="507.6465" x="7" y="673.24"/><ellipse cx="232.1313" cy="689.24" fill="#ADD1B2" rx="11" ry="11" style="stroke:#181818;stroke-width:1;"/><path d="M235.1001,694.8806 Q234.522,695.1775 233.8813,695.3181 Q233.2407,695.4744 232.5376,695.4744 Q230.0376,695.4744 228.7095,693.8338 Q227.397,692.1775 227.397,689.0525 Q227.397,685.9275 228.7095,684.2713 Q230.0376,682.615 232.5376,682.615 Q233.2407,682.615 233.8813,682.7713 Q234.5376,682.9275 235.1001,683.2244 L235.1001,685.9431 Q234.4751,685.365 233.8813,685.0994 Q233.2876,684.8181 232.6626,684.8181 Q231.3188,684.8181 230.6313,685.8963 Q229.9438,686.9588 229.9438,689.0525 Q229.9438,691.1463 230.6313,692.2244 Q231.3188,693.2869 232.6626,693.2869 Q233.2876,693.2869 233.8813,693.0213 Q234.4751,692.74 235.1001,692.1619 L235.1001,694.8806 Z " fill="#000000"/><text fill="#000000" font-family="sans-serif" font-size="14" lengthAdjust="spacing" textLength="48.8838" x="252.6313" y="694.0867">cdCmd</text><line style="stroke:#181818;stroke-width:0.5;" x1="8" x2="513.6465" y1="705.24" y2="705.24"/><line style="stroke:#181818;stroke-width:0.5;" x1="8" x2="513.6465" y1="713.24" y2="713.24"/><rect fill="#F24D5C" height="6" style="stroke:#C82930;stroke-width:1;" width="6" x="15" y="723.8884"/><text fill="#000000" font-family="sans-serif" font-size="14" lengthAdjust="spacing" textLength="481.6465" x="27" y="730.2351">execute(ShellContext&amp; context, std::vector&lt;std::string&gt;&amp; args) : int</text><rect fill="#F24D5C" height="6" style="stroke:#C82930;stroke-width:1;" width="6" x="15" y="740.1853"/><text fill="#000000" font-family="sans-serif" font-size="14" lengthAdjust="spacing" textLength="198.2148" x="27" y="746.532">name() : std::string {query}</text></g><!--class echoCmd--><g class="entity" data-entity="echoCmd" data-source-line="31" data-uid="ent0005" id="entity_echoCmd"><rect fill="#F1F1F1" height="80.5938" rx="2.5" ry="2.5" style="stroke:#181818;stroke-width:0.5;" width="507.6465" x="550" y="673.24"/><ellipse cx="766.5488" cy="689.24" fill="#ADD1B2" rx="11" ry="11" style="stroke:#181818;stroke-width:1;"/><path d="M769.5176,694.8806 Q768.9395,695.1775 768.2988,695.3181 Q767.6582,695.4744 766.9551,695.4744 Q764.4551,695.4744 763.127,693.8338 Q761.8145,692.1775 761.8145,689.0525 Q761.8145,685.9275 763.127,684.2713 Q764.4551,682.615 766.9551,682.615 Q767.6582,682.615 768.2988,682.7713 Q768.9551,682.9275 769.5176,683.2244 L769.5176,685.9431 Q768.8926,685.365 768.2988,685.0994 Q767.7051,684.8181 767.0801,684.8181 Q765.7363,684.8181 765.0488,685.8963 Q764.3613,686.9588 764.3613,689.0525 Q764.3613,691.1463 765.0488,692.2244 Q765.7363,693.2869 767.0801,693.2869 Q767.7051,693.2869 768.2988,693.0213 Q768.8926,692.74 769.5176,692.1619 L769.5176,694.8806 Z " fill="#000000"/><text fill="#000000" font-family="sans-serif" font-size="14" lengthAdjust="spacing" textLength="66.0488" x="787.0488" y="694.0867">echoCmd</text><line style="stroke:#181818;stroke-width:0.5;" x1="551" x2="1056.6465" y1="705.24" y2="705.24"/><line style="stroke:#181818;stroke-width:0.5;" x1="551" x2="1056.6465" y1="713.24" y2="713.24"/><rect fill="#F24D5C" height="6" style="stroke:#C82930;stroke-width:1;" width="6" x="558" y="723.8884"/><text fill="#000000" font-family="sans-serif" font-size="14" lengthAdjust="spacing" textLength="481.6465" x="570" y="730.2351">execute(ShellContext&amp; context, std::vector&lt;std::string&gt;&amp; args) : int</text><rect fill="#F24D5C" height="6" style="stroke:#C82930;stroke-width:1;" width="6" x="558" y="740.1853"/><text fill="#000000" font-family="sans-serif" font-size="14" lengthAdjust="spacing" textLength="198.2148" x="570" y="746.532">name() : std::string {query}</text></g><!--class exitCmd--><g class="entity" data-entity="exitCmd" data-source-line="37" data-uid="ent0006" id="entity_exitCmd"><rect fill="#F1F1F1" height="80.5938" rx="2.5" ry="2.5" style="stroke:#181818;stroke-width:0.5;" width="507.6465" x="1093" y="673.24"/><ellipse cx="1313.2847" cy="689.24" fill="#ADD1B2" rx="11" ry="11" style="stroke:#181818;stroke-width:1;"/><path d="M1316.2534,694.8806 Q1315.6753,695.1775 1315.0347,695.3181 Q1314.394,695.4744 1313.6909,695.4744 Q1311.1909,695.4744 1309.8628,693.8338 Q1308.5503,692.1775 1308.5503,689.0525 Q1308.5503,685.9275 1309.8628,684.2713 Q1311.1909,682.615 1313.6909,682.615 Q1314.394,682.615 1315.0347,682.7713 Q1315.6909,682.9275 1316.2534,683.2244 L1316.2534,685.9431 Q1315.6284,685.365 1315.0347,685.0994 Q1314.4409,684.8181 1313.8159,684.8181 Q1312.4722,684.8181 1311.7847,685.8963 Q1311.0972,686.9588 1311.0972,689.0525 Q1311.0972,691.1463 1311.7847,692.2244 Q1312.4722,693.2869 1313.8159,693.2869 Q1314.4409,693.2869 1315.0347,693.0213 Q1315.6284,692.74 1316.2534,692.1619 L1316.2534,694.8806 Z " fill="#000000"/><text fill="#000000" font-family="sans-serif" font-size="14" lengthAdjust="spacing" textLength="58.5771" x="1333.7847" y="694.0867">exitCmd</text><line style="stroke:#181818;stroke-width:0.5;" x1="1094" x2="1599.6465" y1="705.24" y2="705.24"/><line style="stroke:#181818;stroke-width:0.5;" x1="1094" x2="1599.6465" y1="713.24" y2="713.24"/><rect fill="#F24D5C" height="6" style="stroke:#C82930;stroke-width:1;" width="6" x="1101" y="723.8884"/><text fill="#000000" font-family="sans-serif" font-size="14" lengthAdjust="spacing" textLength="481.6465" x="1113" y="730.2351">execute(ShellContext&amp; context, std::vector&lt;std::string&gt;&amp; args) : int</text><rect fill="#F24D5C" height="6" style="stroke:#C82930;stroke-width:1;" width="6" x="1101" y="740.1853"/><text fill="#000000" font-family="sans-serif" font-size="14" lengthAdjust="spacing" textLength="198.2148" x="1113" y="746.532">name() : std::string {query}</text></g><!--class exportCmd--><g class="entity" data-entity="exportCmd" data-source-line="43" data-uid="ent0007" id="entity_exportCmd"><rect fill="#F1F1F1" height="80.5938" rx="2.5" ry="2.5" style="stroke:#181818;stroke-width:0.5;" width="507.6465" x="1636" y="673.24"/><ellipse cx="1846.6255" cy="689.24" fill="#ADD1B2" rx="11" ry="11" style="stroke:#181818;stroke-width:1;"/><path d="M1849.5942,694.8806 Q1849.0161,695.1775 1848.3755,695.3181 Q1847.7349,695.4744 1847.0317,695.4744 Q1844.5317,695.4744 1843.2036,693.8338 Q1841.8911,692.1775 1841.8911,689.0525 Q1841.8911,685.9275 1843.2036,684.2713 Q1844.5317,682.615 1847.0317,682.615 Q1847.7349,682.615 1848.3755,682.7713 Q1849.0317,682.9275 1849.5942,683.2244 L1849.5942,685.9431 Q1848.9692,685.365 1848.3755,685.0994 Q1847.7817,684.8181 1847.1567,684.8181 Q1845.813,684.8181 1845.1255,685.8963 Q1844.438,686.9588 1844.438,689.0525 Q1844.438,691.1463 1845.1255,692.2244 Q1845.813,693.2869 1847.1567,693.2869 Q1847.7817,693.2869 1848.3755,693.0213 Q1848.9692,692.74 1849.5942,692.1619 L1849.5942,694.8806 Z " fill="#000000"/><text fill="#000000" font-family="sans-serif" font-size="14" lengthAdjust="spacing" textLength="77.8955" x="1867.1255" y="694.0867">exportCmd</text><line style="stroke:#181818;stroke-width:0.5;" x1="1637" x2="2142.6465" y1="705.24" y2="705.24"/><line style="stroke:#181818;stroke-width:0.5;" x1="1637" x2="2142.6465" y1="713.24" y2="713.24"/><rect fill="#F24D5C" height="6" style="stroke:#C82930;stroke-width:1;" width="6" x="1644" y="723.8884"/><text fill="#000000" font-family="sans-serif" font-size="14" lengthAdjust="spacing" textLength="481.6465" x="1656" y="730.2351">execute(ShellContext&amp; context, std::vector&lt;std::string&gt;&amp; args) : int</text><rect fill="#F24D5C" height="6" style="stroke:#C82930;stroke-width:1;" width="6" x="1644" y="740.1853"/><text fill="#000000" font-family="sans-serif" font-size="14" lengthAdjust="spacing" textLength="198.2148" x="1656" y="746.532">name() : std::string {query}</text></g><!--class pwdCmd--><g class="entity" data-entity="pwdCmd" data-source-line="49" data-uid="ent0008" id="entity_pwdCmd"><rect fill="#F1F1F1" height="80.5938" rx="2.5" ry="2.5" style="stroke:#181818;stroke-width:0.5;" width="507.6465" x="2179" y="673.24"/><ellipse cx="2397.8115" cy="689.24" fill="#ADD1B2" rx="11" ry="11" style="stroke:#181818;stroke-width:1;"/><path d="M2400.7803,694.8806 Q2400.2021,695.1775 2399.5615,695.3181 Q2398.9209,695.4744 2398.2178,695.4744 Q2395.7178,695.4744 2394.3896,693.8338 Q2393.0771,692.1775 2393.0771,689.0525 Q2393.0771,685.9275 2394.3896,684.2713 Q2395.7178,682.615 2398.2178,682.615 Q2398.9209,682.615 2399.5615,682.7713 Q2400.2178,682.9275 2400.7803,683.2244 L2400.7803,685.9431 Q2400.1553,685.365 2399.5615,685.0994 Q2398.9678,684.8181 2398.3428,684.8181 Q2396.999,684.8181 2396.3115,685.8963 Q2395.624,686.9588 2395.624,689.0525 Q2395.624,691.1463 2396.3115,692.2244 Q2396.999,693.2869 2398.3428,693.2869 Q2398.9678,693.2869 2399.5615,693.0213 Q2400.1553,692.74 2400.7803,692.1619 L2400.7803,694.8806 Z " fill="#000000"/><text fill="#000000" font-family="sans-serif" font-size="14" lengthAdjust="spacing" textLength="61.5234" x="2418.3115" y="694.0867">pwdCmd</text><line style="stroke:#181818;stroke-width:0.5;" x1="2180" x2="2685.6465" y1="705.24" y2="705.24"/><line style="stroke:#181818;stroke-width:0.5;" x1="2180" x2="2685.6465" y1="713.24" y2="713.24"/><rect fill="#F24D5C" height="6" style="stroke:#C82930;stroke-width:1;" width="6" x="2187" y="723.8884"/><text fill="#000000" font-family="sans-serif" font-size="14" lengthAdjust="spacing" textLength="481.6465" x="2199" y="730.2351">execute(ShellContext&amp; context, std::vector&lt;std::string&gt;&amp; args) : int</text><rect fill="#F24D5C" height="6" style="stroke:#C82930;stroke-width:1;" width="6" x="2187" y="740.1853"/><text fill="#000000" font-family="sans-serif" font-size="14" lengthAdjust="spacing" textLength="198.2148" x="2199" y="746.532">name() : std::string {query}</text></g><!--class ShellContext--><g class="entity" data-entity="ShellContext" data-source-line="58" data-uid="ent0009" id="entity_ShellContext"><rect fill="#F1F1F1" height="194.6719" rx="2.5" ry="2.5" style="stroke:#181818;stroke-width:0.5;" width="640.5713" x="1026.54" y="261.67"/><ellipse cx="1297.9541" cy="277.67" fill="#ADD1B2" rx="11" ry="11" style="stroke:#181818;stroke-width:1;"/><path d="M1300.9228,283.3106 Q1300.3447,283.6075 1299.7041,283.7481 Q1299.0634,283.9044 1298.3603,283.9044 Q1295.8603,283.9044 1294.5322,282.2638 Q1293.2197,280.6075 1293.2197,277.4825 Q1293.2197,274.3575 1294.5322,272.7013 Q1295.8603,271.045 1298.3603,271.045 Q1299.0634,271.045 1299.7041,271.2013 Q1300.3603,271.3575 1300.9228,271.6544 L1300.9228,274.3731 Q1300.2978,273.795 1299.7041,273.5294 Q1299.1103,273.2481 1298.4853,273.2481 Q1297.1416,273.2481 1296.4541,274.3263 Q1295.7666,275.3888 1295.7666,277.4825 Q1295.7666,279.5763 1296.4541,280.6544 Q1297.1416,281.7169 1298.4853,281.7169 Q1299.1103,281.7169 1299.7041,281.4513 Q1300.2978,281.17 1300.9228,280.5919 L1300.9228,283.3106 Z " fill="#000000"/><text fill="#000000" font-family="sans-serif" font-size="14" lengthAdjust="spacing" textLength="89.2432" x="1318.4541" y="282.5167">ShellContext</text><line style="stroke:#181818;stroke-width:0.5;" x1="1027.54" x2="1666.1113" y1="293.67" y2="293.67"/><ellipse cx="1037.54" cy="307.3184" fill="none" rx="3" ry="3" style="stroke:#038048;stroke-width:1;"/><text fill="#000000" font-family="sans-serif" font-size="14" lengthAdjust="spacing" textLength="97.5488" x="1046.54" y="310.6651">running : bool</text><ellipse cx="1037.54" cy="323.6153" fill="none" rx="3" ry="3" style="stroke:#038048;stroke-width:1;"/><text fill="#000000" font-family="sans-serif" font-size="14" lengthAdjust="spacing" textLength="98.9092" x="1046.54" y="326.962">exit_code : int</text><ellipse cx="1037.54" cy="339.9122" fill="none" rx="3" ry="3" style="stroke:#038048;stroke-width:1;"/><text fill="#000000" font-family="sans-serif" font-size="14" lengthAdjust="spacing" textLength="234.5068" x="1046.54" y="343.2589">current_dir : std::filesystem::path</text><ellipse cx="1037.54" cy="356.2091" fill="none" rx="3" ry="3" style="stroke:#038048;stroke-width:1;"/><text fill="#000000" font-family="sans-serif" font-size="14" lengthAdjust="spacing" textLength="154.834" x="1046.54" y="359.5557">hostname : std::string</text><ellipse cx="1037.54" cy="372.5059" fill="none" rx="3" ry="3" style="stroke:#038048;stroke-width:1;"/><text fill="#000000" font-family="sans-serif" font-size="14" lengthAdjust="spacing" textLength="356.3643" x="1046.54" y="375.8526">env : std::unordered_map&lt;std::string, std::string&gt;</text><ellipse cx="1037.54" cy="388.8028" fill="none" rx="3" ry="3" style="stroke:#038048;stroke-width:1;"/><text fill="#000000" font-family="sans-serif" font-size="14" lengthAdjust="spacing" textLength="592.9082" x="1046.54" y="392.1495">commandRegistry : std::unordered_map&lt;std::string, std::unique_ptr&lt;ICommand&gt;&gt;</text><line style="stroke:#181818;stroke-width:0.5;" x1="1027.54" x2="1666.1113" y1="399.4513" y2="399.4513"/><ellipse cx="1037.54" cy="413.0997" fill="#84BE84" rx="3" ry="3" style="stroke:#038048;stroke-width:1;"/><text fill="#000000" font-family="sans-serif" font-size="14" lengthAdjust="spacing" textLength="100.167" x="1046.54" y="416.4464">ShellContext()</text><ellipse cx="1037.54" cy="429.3966" fill="#84BE84" rx="3" ry="3" style="stroke:#038048;stroke-width:1;"/><text fill="#000000" font-family="sans-serif" font-size="14" lengthAdjust="spacing" textLength="614.5713" x="1046.54" y="432.7432">executeExternalCommand(std::string&amp; CmdName, std::vector&lt;std::string&gt;&amp; args) : int</text><ellipse cx="1037.54" cy="445.6934" fill="#84BE84" rx="3" ry="3" style="stroke:#038048;stroke-width:1;"/><text fill="#000000" font-family="sans-serif" font-size="14" lengthAdjust="spacing" textLength="439.209" x="1046.54" y="449.0401">find_executable(const std::string&amp; cmd) : std::filesystem::path</text></g><!--reverse link ICommand to cdCmd--><g class="link" data-entity-1="ICommand" data-entity-2="cdCmd" data-source-line="79" data-uid="lnk10" id="link_ICommand_cdCmd"><path codeLine="79" d="M1074.9604,600.8316 C914.3504,621.7216 720.27,647.33 532.82,673.24 C526.92,674.05 520.94,674.88 514.91,675.72" fill="none" id="ICommand-backto-cdCmd" style="stroke:#181818;stroke-width:1;"/><polygon fill="none" points="1092.81,598.51,1074.1865,594.8818,1075.7342,606.7815,1092.81,598.51" style="stroke:#181818;stroke-width:1;"/></g><!--reverse link ICommand to echoCmd--><g class="link" data-entity-1="ICommand" data-entity-2="echoCmd" data-source-line="82" data-uid="lnk11" id="link_ICommand_echoCmd"><path codeLine="82" d="M1152.403,618.3348 C1081.523,637.4848 1018.22,654.59 950.68,672.85" fill="none" id="ICommand-backto-echoCmd" style="stroke:#181818;stroke-width:1;"/><polygon fill="none" points="1169.78,613.64,1150.8381,612.5425,1153.968,624.1271,1169.78,613.64" style="stroke:#181818;stroke-width:1;"/></g><!--reverse link ICommand to exitCmd--><g class="link" data-entity-1="ICommand" data-entity-2="exitCmd" data-source-line="85" data-uid="lnk12" id="link_ICommand_exitCmd"><path codeLine="85" d="M1346.82,631.43 C1346.82,650.68 1346.82,654.63 1346.82,672.98" fill="none" id="ICommand-backto-exitCmd" style="stroke:#181818;stroke-width:1;"/><polygon fill="none" points="1346.82,613.43,1340.82,631.43,1352.82,631.43,1346.82,613.43" style="stroke:#181818;stroke-width:1;"/></g><!--reverse link ICommand to exportCmd--><g class="link" data-entity-1="ICommand" data-entity-2="exportCmd" data-source-line="88" data-uid="lnk13" id="link_ICommand_exportCmd"><path codeLine="88" d="M1541.2468,618.3354 C1612.1168,637.4854 1675.43,654.59 1742.96,672.85" fill="none" id="ICommand-backto-exportCmd" style="stroke:#181818;stroke-width:1;"/><polygon fill="none" points="1523.87,613.64,1539.6816,624.1277,1542.8119,612.5432,1523.87,613.64" style="stroke:#181818;stroke-width:1;"/></g><!--reverse link ICommand to pwdCmd--><g class="link" data-entity-1="ICommand" data-entity-2="pwdCmd" data-source-line="91" data-uid="lnk14" id="link_ICommand_pwdCmd"><path codeLine="91" d="M1618.6797,600.8315 C1779.2997,621.7215 1973.38,647.33 2160.82,673.24 C2166.73,674.05 2172.71,674.88 2178.74,675.72" fill="none" id="ICommand-backto-pwdCmd" style="stroke:#181818;stroke-width:1;"/><polygon fill="none" points="1600.83,598.51,1617.9058,606.7814,1619.4535,594.8816,1600.83,598.51" style="stroke:#181818;stroke-width:1;"/></g><!--reverse link Shell to Shell--><g class="link" data-entity-1="Shell" data-entity-2="Shell" data-source-line="103" data-uid="lnk15" id="link_Shell_Shell"><path codeLine="103" d="M1612.4175,71.4055 C1633.9275,79.3455 1636.07,87.55 1636.07,104.34 C1636.07,121.13 1622.67,133.49 1601.16,141.42" fill="none" id="Shell-backto-Shell" style="stroke:#181818;stroke-width:1;"/><polygon fill="none" points="1601.16,67.25,1605.4036,73.0803,1612.4175,71.4055,1608.1739,65.5752,1601.16,67.25" style="stroke:#181818;stroke-width:1;"/></g><!--reverse link Shell to ShellContext--><g class="link" data-entity-1="Shell" data-entity-2="ShellContext" data-source-line="106" data-uid="lnk16" id="link_Shell_ShellContext"><path codeLine="106" d="M1346.82,213.94 C1346.82,233.45 1346.82,241.95 1346.82,261.46" fill="none" id="Shell-backto-ShellContext" style="stroke:#181818;stroke-width:1;"/><polygon fill="#181818" points="1346.82,201.94,1342.82,207.94,1346.82,213.94,1350.82,207.94,1346.82,201.94" style="stroke:#181818;stroke-width:1;"/></g><!--reverse link ShellContext to ICommand--><g class="link" data-entity-1="ShellContext" data-entity-2="ICommand" data-source-line="109" data-uid="lnk17" id="link_ShellContext_ICommand"><path codeLine="109" d="M1346.82,468.83 C1346.82,489.37 1346.82,498.18 1346.82,515.92" fill="none" id="ShellContext-backto-ICommand" style="stroke:#181818;stroke-width:1;"/><polygon fill="none" points="1346.82,456.83,1342.82,462.83,1346.82,468.83,1350.82,462.83,1346.82,456.83" style="stroke:#181818;stroke-width:1;"/></g><!--SRC=[nPNDRjim383FyrFeb9-sHkv64608UkYb6xO7C1I9jJNOaaV9RO8iVVRHakKwJT3bC3G-qPH8VX95SZ5btpQ_G3ZBfeiaIVZ6EkJ2CL5nQzd3sjGrrvBjao-th_5lDgU_VTnwOB05qJgO_IoXgjP6EzYw2HD1k6FMoInxfXW6brucEwMBrOHnBEoSPKnfT-nHynfctSfeFzl_RW5tX-H0d4dWyn4zd9SysEiWfZq2-HcZqSBUEkwKE33UEYDCtLH0_BJTqibBZZU4rBJ4JcJ4mB4NGSkEocyXDsFhl00Do3zqus1iVHPYS9E_86yQm4lTtMAhPyDblZbNPCsr07-PdIhSnH70fbML_8w4uFfmPrFvBY4-4I4FGgvh_qZI__CMqdy-W10NH6ck57chtBKYDmQl5Bjv-VH47zTw7-Yjv7k5htog0DsPPsnZJ4MAdl5-wm0rhsBx6eMQC3hF8p5StgQwpEV2I1WqeaK4xNAfC1xaILLWTzP1dMKDToNjUb9Qve68RwhO9evOH2td7tWeZNNTVRqhGqBIpr7NQeCI46HUysPyZhknpQgZ3hVn0mf5ojsb3bgjA3jvut0Pvy5g5JErcB87NGAgq78GAcemTCvIDVs0IP9XfYp_f6de72VQlgvFzQ7gpkZxcZXP2IzseFjQ50Y5XpfFbuIHOiZKIuFc9chY5EaNueliB6Be97uKyH4eXvAPOSh-1G00]--></g></svg>